<svg xmlns="http://www.w3.org/2000/svg" viewBox="0 0 5364.66 3341.76"><defs><style>.cls-1{fill:#e27d39}</style></defs><g id="Camada_2" data-name="Camada 2"><g id="Camada_1-2" data-name="Camada 1"><path class="cls-1" d="M1615.92 1698.77l-919.1 65.79-41.74 353.2 52.69-6.55q250-41.69 370.69-41.74L440.1 2938.12l-2.14 329q118.48-19.64 486.91-50.44 267.72-19.8 462.88-19.75l6.55-342.15q-377.18 26.25-449.68 26.3l612.05-873.06z"/><path class="cls-1" d="M2556.91 1755.86q-35.9-62.94-89.61-99.27c-51.62 154-131.36 310.8-196 437.76-1 1.93-1.93 3.86-3 5.8q45.07 41.06 45.08 160.23 0 94.33-27.37 209.49-27.53 115.1-80.06 216t-130.5 170q-77.9 69.13-178.78 69.13c-19 0-35.85-5.15-50.44-15.34q-74.7-43.95-74.59-131.68 0-131.52 48.29-280.75 34-101.09 75.55-178.37c-28.33-180.08-55.06-331-80.49-458.16q-158.41 180.14-260.58 434.76-116.22 289.45-116.23 539.61 0 230.2 96.48 350.94 87.73 109.63 239.11 109.68 179.82 0 375.09-153.58 94.33-74.53 181-182t152.4-243.51q65.84-136 104.21-298.35t38.42-296.1q.11-245.66-67.98-366.29z"/><path class="cls-1" d="M3664.68 1755.86q-85.64-149.23-269.8-149.18-223.77 0-427.79 206.16-188.67 193-304.9 482.63Q2546 2584.93 2546 2835.09q0 230.2 96.48 350.94 87.74 109.63 239.12 109.68 179.82 0 375.09-153.58 94.34-74.53 180.95-182t152.5-243.51q65.84-136 104.21-298.35t38.31-296.1q-.04-245.68-67.98-366.31zm-271 714q-27.36 115.1-80.06 216t-130.5 170q-77.9 69.14-178.68 69.14c-19.1 0-35.84-5.15-50.55-15.34q-74.53-43.95-74.48-131.68 0-131.52 48.19-280.75 61.49-182.07 147-287.3 107.37-131.68 241.26-131.68 105.28 0 105.28 182.13.03 94.34-27.44 209.5z"/><path class="cls-1" d="M4208.7 2736.35l239-35.09q-4.35 125.08-92.08 217.11a286.65 286.65 0 01-85.53 62.56A236.57 236.57 0 014167 3004q-54.9 0-96.48-59.24t-41.64-199.62q8.69-280.75 142.52-572.56 59.24-125.08 126.1-205.09t124-80.06q92.08 0 129.43 166.67l309.3-59.13q0-171.13-83.39-272.06-41.69-52.64-107.43-84.46T4496 1606.69q-107.53 0-253.38 70.19t-272 213.89q-126.22 143.59-209.49 358.56t-83.39 501.3q0 286.23 118.48 444.21 54.73 74.53 129.43 110.75 74.53 36.22 170 36.17t216-57q120.58-57 224.84-171.17 104.15-114 178.8-284t89.93-398.16q-245.66 43.95-555 83.39zM5013.72 1714.12q-57.15 329.05-193.07 1015.69-59.24 300.55-129.43 555 4.5-2.25 155.72-22 151.49-19.64 212.82-19.75 54.73-311.35 304.9-1583.75zM2377.49 1665.87c-46.66 142.31-122.6 290.51-179 401.23a7 7 0 00-.68 1.16c-59.51 103.76-134.68 226.65-192.74 294.47-12.18-5.41-21.74-18.74-26.28-42.6q-8.55-55.07-16.91-106.37c-24.63-152.16-48.11-280.27-70.72-388.86-118.54-570-215.15-600.05-360.07-722-36.81-30.92-67-43.18-92.36-43.18-97.09 0-122.41 179.79-170.42 179.79h-1.16c-61.35-3.67-69.66-68.4-69.66-68.4s44.73-220.66 197.67-220.66c4.34 0 8.89.19 13.43.58 163.76 13.43 265.78 122.21 265.78 122.21s4.64-.1 13.43-.1c83.57 0 534.16 10 690.29 222.59 64.03 87.16 46.73 225.61-.6 370.14z"/><path d="M765.18 529.91c-2.46 2-4.93 4-7.31 6l1-6.8z" fill="#ba6e3a"/><path class="cls-1" d="M370.25 88s-45.47 97.49-268.57 814.28c-41.28 132.35-62.93 263.59-70.93 389.62-1.39 20.6-2.24 41.25-2.9 61.57a.15.15 0 010 .21C19.64 1630.19 74.74 1877.4 129 2050.12c5.65-17.53 12.35-36.56 20.58-56.58a789.25 789.25 0 01149.14-235.86 13.8 13.8 0 011.66-1.87q9.42-10.38 19.5-20.49c2.27-2.36 4.54-4.61 6.91-7h.11c2.76-2.83 5.63-5.68 8.51-8.41a830.61 830.61 0 0176.38-65.13c4.43-3.41 9.09-6.85 13.75-10.17q17.59-12.89 36.53-25.25c1.12-.74 2.23-1.49 3.46-2.25 6-3.88 12.23-7.78 18.57-11.57 14.8-9.19 30.38-18.13 46.42-26.78 166.11-89.54 264.76-214 323.32-329a803.54 803.54 0 0033.05-73.76C694.72 289.47 370.25 88 370.25 88z"/><path class="cls-1" d="M371.53 0S126.37 571.47 19 1160.25c-59 322.92 31.24 661.37 109.49 891.53l.5-1.66c5.65-17.53 12.35-36.56 20.58-56.58-47.19-149.21-90.66-334-101.55-527.83-.91-16.19-1.32-32.85-1.35-50v-.11c0-3.45.14-6.91.14-10.46.16.52.42 1.15.58 1.67 1.34 4.19 2.81 8.48 4.36 12.65 2 5.32 4 10.64 6.16 15.83 1.94 4.78 3.87 9.46 6 14.22q6.27 14.15 13.51 28.21c2.1 4.23 4.3 8.34 6.62 12.56 15.12 28.06 32.88 55.56 52.19 82.28 3.44 4.76 6.88 9.41 10.31 14.06s7 9.18 10.61 13.81c6.21 8.06 12.65 16.11 19.18 24 .37.51.73.91 1.09 1.41 4.58 5.41 9.05 10.83 13.62 16.13 4.94 5.81 10 11.5 15 17.08 31.4 35.44 63.85 68.09 94.32 96.72q9.42-10.38 19.5-20.49c2.27-2.36 4.54-4.61 6.91-7h.11c2.76-2.83 5.63-5.68 8.51-8.41a830.61 830.61 0 0176.38-65.13c4.43-3.41 9.09-6.85 13.75-10.17q17.59-12.89 36.53-25.25c1.09-1.07 2.07-2.12 3.05-3.18 5-5.4 10-10.6 15.08-15.79 41.21-42.7 79.16-78.63 110.87-107.12 16-14.36 30.26-26.74 42.78-37.34 38.19-647.12-118-1170.27-118-1170.27 148.1 145 287.23 730.37 338 964.07a803.54 803.54 0 0033.06-73.69c4.64-11.95 8.87-23.64 12.71-35C759.53 406.72 371.53 0 371.53 0z"/><path d="M591.05 1493.29c.07 1.93 0 3.88 0 5.82l-8.63 23.94c-12.71 13.31-30.61 32.37-51.91 55.72-16 8.65-31.61 17.59-46.41 26.78-6.34 3.8-12.56 7.7-18.57 11.57-1.23.76-2.34 1.5-3.47 2.25q-18.93 12.36-36.53 25.25a499.64 499.64 0 00-13.75 10.17 830.17 830.17 0 00-76.38 65.13c-2.88 2.74-5.75 5.58-8.51 8.41h-.11c-2.37 2.37-4.65 4.62-6.91 7q-10.09 10.11-19.5 20.49c-28.35-26.55-58.3-56.63-87.62-89.24-2.27-2.49-4.43-5-6.7-7.48-5-5.58-10.06-11.28-15-17.08-4.57-5.3-9-10.72-13.62-16.13-.37-.51-.73-.91-1.1-1.41-6.52-7.93-13-16-19.17-24-3.65-4.63-7.18-9.16-10.61-13.81s-6.87-9.3-10.31-14.05A743.24 743.24 0 0184 1490.3c-2.32-4.21-4.52-8.32-6.62-12.55q-7.23-14.06-13.52-28.21c-2.15-4.76-4.08-9.44-6-14.22-2.19-5.19-4.17-10.51-6.16-15.83-1.56-4.17-3-8.46-4.36-12.65-.16-.53-.43-1.15-.58-1.67.21-21.68 1.23-44.07 2.73-67 1.28-18.22 2.94-36.9 5-55.83 47.64-447.66 300-1066.64 332.32-1144.64l3.36-8.17S600.37 496 591.05 1493.29z" fill="#ffc7c6"/><path d="M484.1 1605.54c-6.34 3.8-12.56 7.7-18.57 11.57l-.41-.93c-14.84-34.55-40.26-101.88-45.07-166.53 0 0 30.35 107.94 60.15 150.75 1.34 1.81 2.57 3.53 3.9 5.14z" fill="#fff"/><path d="M591.05 1493.29c.07 1.93 0 3.88 0 5.82l-8.63 23.94c-12.71 13.31-30.61 32.37-51.91 55.72-16 8.65-31.61 17.59-46.41 26.78-6.34 3.8-12.56 7.7-18.57 11.57-1.23.76-2.34 1.5-3.47 2.25q-18.93 12.36-36.53 25.25a499.64 499.64 0 00-13.75 10.17 830.17 830.17 0 00-76.38 65.13c-2.88 2.74-5.75 5.58-8.51 8.41h-.11c-2.37 2.37-4.65 4.62-6.91 7q-10.09 10.11-19.5 20.49c-28.35-26.55-58.3-56.63-87.62-89.24C591.29 960.23 441.28 317.24 386.85 137.64l3.36-8.17S600.37 496 591.05 1493.29z" fill="#d3a3a3" opacity=".53"/></g></g></svg>