<svg xmlns="http://www.w3.org/2000/svg" width="20.215" height="36" viewBox="0 0 20.215 36"><defs><style>.a{fill:#fff;}</style></defs><g transform="translate(-107.578)"><path class="a" d="M219.258,253.9h-.172a1.66,1.66,0,0,0-1.658,1.658v.172a1.66,1.66,0,0,0,1.658,1.658h.172a1.66,1.66,0,0,0,1.658-1.658v-.172A1.66,1.66,0,0,0,219.258,253.9Zm.411,1.831a.412.412,0,0,1-.411.411h-.172a.412.412,0,0,1-.411-.411v-.172a.412.412,0,0,1,.411-.411h.172a.412.412,0,0,1,.411.411Z" transform="translate(-101.79 -235.268)"/><path class="a" d="M233.331,324.422a.624.624,0,0,0-.624.624v1.811a.624.624,0,1,0,1.247,0v-1.811A.624.624,0,0,0,233.331,324.422Z" transform="translate(-115.949 -300.621)"/><path class="a" d="M127.17,34.753h-7.059a2.237,2.237,0,0,1-2.235-2.234V30.436h1.582a3.25,3.25,0,0,0,3.247-3.247V18.631h1.778a2.705,2.705,0,0,0,2.7-2.7V8.307a2.705,2.705,0,0,0-1.548-2.443V.624a.624.624,0,1,0-1.247,0V5.605h-1.806V.624a.624.624,0,0,0-1.247,0V5.605h-1.805V.624a.624.624,0,1,0-1.247,0V5.605h-1.806V.624a.624.624,0,0,0-1.247,0V5.605h-1.806V.624a.624.624,0,0,0-1.247,0V5.605h-1.805V.624a.624.624,0,0,0-1.247,0V5.865a2.705,2.705,0,0,0-1.548,2.443v7.621a2.705,2.705,0,0,0,2.7,2.7h1.778v8.559a3.25,3.25,0,0,0,3.247,3.247h1.324v2.082A3.486,3.486,0,0,0,120.111,36h7.059a.624.624,0,1,0,0-1.247Zm-16.89-27.9h14.2a1.457,1.457,0,0,1,1.455,1.455V9.572H108.825V8.307A1.457,1.457,0,0,1,110.28,6.852Zm3.025,20.337V18.007a.624.624,0,0,0-.624-.624h-2.4a1.457,1.457,0,0,1-1.455-1.455V10.819h17.113v5.109a1.457,1.457,0,0,1-1.455,1.455h-2.4a.624.624,0,0,0-.624.624v9.182a2,2,0,0,1-2,2H115.3A2,2,0,0,1,113.305,27.189Z"/></g></svg>