<svg xmlns="http://www.w3.org/2000/svg" width="36" height="25.656" viewBox="0 0 36 25.656"><defs><style>.a{fill:#fff;}</style></defs><g transform="translate(0 -70.543)"><path class="a" d="M34.5,74.423H23.847V72.046a1.5,1.5,0,0,0-1.5-1.5H13.656a1.5,1.5,0,0,0-1.5,1.5v2.377H1.5a1.5,1.5,0,0,0-1.5,1.5V94.7a1.5,1.5,0,0,0,1.5,1.5H34.5A1.5,1.5,0,0,0,36,94.7V75.926A1.5,1.5,0,0,0,34.5,74.423ZM13.4,72.046a.257.257,0,0,1,.257-.257h8.688a.257.257,0,0,1,.257.257v2.377H13.4ZM34.754,94.7a.257.257,0,0,1-.257.257H1.5a.257.257,0,0,1-.257-.257V75.926a.257.257,0,0,1,.257-.257H34.5a.257.257,0,0,1,.257.257Z"/><path class="a" d="M186.432,207.362H185.5v-.932a1.7,1.7,0,0,0-1.7-1.7h-1.2a1.7,1.7,0,0,0-1.7,1.7v.932h-.932a1.7,1.7,0,0,0-1.7,1.7v1.2a1.7,1.7,0,0,0,1.7,1.7h.932v.932a1.7,1.7,0,0,0,1.7,1.7h1.2a1.7,1.7,0,0,0,1.7-1.7v-.932h.932a1.7,1.7,0,0,0,1.7-1.7v-1.2A1.7,1.7,0,0,0,186.432,207.362Zm.453,2.9a.454.454,0,0,1-.453.453h-1.555a.623.623,0,0,0-.623.623v1.555a.454.454,0,0,1-.453.453h-1.2a.454.454,0,0,1-.453-.453v-1.555a.623.623,0,0,0-.623-.623h-1.555a.454.454,0,0,1-.453-.453v-1.2a.454.454,0,0,1,.453-.453h1.555a.623.623,0,0,0,.623-.623v-1.555a.454.454,0,0,1,.453-.453h1.2a.454.454,0,0,1,.453.453v1.555a.623.623,0,0,0,.623.623h1.555a.454.454,0,0,1,.453.453Z" transform="translate(-165.203 -124.349)"/><path class="a" d="M57.905,157.983a2.9,2.9,0,0,0-2.851,2.412H53.289a8.652,8.652,0,0,0-16.728,0H34.8a2.89,2.89,0,1,0-5.161,2.215,2.89,2.89,0,1,0,5.161,2.215h1.765a8.652,8.652,0,0,0,16.728,0h1.765a2.89,2.89,0,1,0,5.161-2.215,2.89,2.89,0,0,0-2.31-4.626Zm-23.7,5.595a.623.623,0,0,0-.622.663c0,.035,0,.069,0,.1a1.644,1.644,0,1,1-2.7-1.259.623.623,0,0,0,0-.954,1.643,1.643,0,1,1,2.7-1.259c0,.035,0,.07,0,.1a.623.623,0,0,0,.622.663h2.12a8.635,8.635,0,0,0,0,1.937Zm10.718,6.437a7.405,7.405,0,1,1,7.405-7.405A7.414,7.414,0,0,1,44.926,170.015Zm14.036-6.928a1.644,1.644,0,1,1-2.7,1.259c0-.035,0-.071,0-.106a.623.623,0,0,0-.622-.662h-2.12a8.635,8.635,0,0,0,0-1.937h2.12a.623.623,0,0,0,.622-.662c0-.035,0-.07,0-.106a1.644,1.644,0,1,1,2.7,1.259.623.623,0,0,0,0,.954Z" transform="translate(-26.926 -77.299)"/></g></svg>