<svg xmlns="http://www.w3.org/2000/svg" width="36" height="36.23" viewBox="0 0 36 36.23"><defs><style>.a{fill:#fff;}</style></defs><g transform="translate(-1.529)"><path class="a" d="M201.934,348.947a4.694,4.694,0,0,0-4.852,4.506,1.619,1.619,0,0,0,1.766,1.791,8.008,8.008,0,0,0,1.713-.273,7.041,7.041,0,0,1,1.373-.233,6.77,6.77,0,0,1,1.279.223,8.178,8.178,0,0,0,1.772.283,1.635,1.635,0,0,0,1.8-1.791A4.694,4.694,0,0,0,201.934,348.947Zm3.051,5.015a7.356,7.356,0,0,1-1.481-.249,7.362,7.362,0,0,0-1.57-.257,7.821,7.821,0,0,0-1.663.266,7.2,7.2,0,0,1-1.424.24c-.386,0-.484-.05-.484-.509a3.589,3.589,0,0,1,7.141,0C205.5,353.881,205.422,353.962,204.985,353.962Z" transform="translate(-180.811 -322.641)"/><path class="a" d="M176.672,297.122a2.05,2.05,0,1,0-2.02,2.4A2.236,2.236,0,0,0,176.672,297.122Zm-2.759,0c0-.594.345-1.116.739-1.116s.739.521.739,1.116-.345,1.116-.739,1.116S173.913,297.716,173.913,297.122Z" transform="translate(-158.203 -272.507)"/><path class="a" d="M238.594,278.539a2.432,2.432,0,1,0-2.02-2.4A2.236,2.236,0,0,0,238.594,278.539Zm0-3.513c.394,0,.739.521.739,1.116s-.345,1.116-.739,1.116-.739-.521-.739-1.116S238.2,275.027,238.594,275.027Z" transform="translate(-217.326 -253.108)"/><path class="a" d="M302.533,294.725a2.432,2.432,0,1,0,2.021,2.4A2.236,2.236,0,0,0,302.533,294.725Zm0,3.513c-.394,0-.739-.521-.739-1.116s.345-1.116.739-1.116.739.521.739,1.116S302.927,298.238,302.533,298.238Z" transform="translate(-276.445 -272.507)"/><path class="a" d="M37.529,70.375a6.184,6.184,0,0,0-8.522-5.722,5.73,5.73,0,0,0-10.141.234,5.688,5.688,0,0,0-3.947,1.208,5.162,5.162,0,0,0-8.371,5.652,2.7,2.7,0,0,0-.8,2.5l2.367,13.16a4.311,4.311,0,0,0-4.045.97,2.426,2.426,0,0,0-2.533,2.158A1.233,1.233,0,0,0,1.89,91.56c.384.4,1.265.929,4.468.951h.2c1.58,0,2.958-.122,3.019-.127a.639.639,0,0,0,.22-.061,3.646,3.646,0,0,0,2.4.961H30.742A3.755,3.755,0,0,0,34.3,90.309L37.19,74.248a2.823,2.823,0,0,0-.128-1.516A6.149,6.149,0,0,0,37.529,70.375Zm-19.961-4.23a2.789,2.789,0,0,1,3.391,1.616.7.7,0,0,0,.586.382.641.641,0,0,0,.586-.9,4.02,4.02,0,0,0-1.988-2.029,4.448,4.448,0,0,1,7.969.532.641.641,0,0,0,.9.319,4.9,4.9,0,1,1-2.327,5.816.641.641,0,0,0-.872-.388A4.412,4.412,0,0,1,24,71.883a4.5,4.5,0,0,1-.7-.056.641.641,0,0,0-.7.4,4.447,4.447,0,0,1-7.891.764.641.641,0,0,0-.942-.154,3.838,3.838,0,0,1-2.431.857A3.882,3.882,0,1,1,14,66.991a5.039,5.039,0,0,0-.832,1.608.641.641,0,1,0,1.227.372A4.266,4.266,0,0,1,17.568,66.145ZM6.2,91.228c-2.743-.035-3.306-.47-3.391-.557a1.217,1.217,0,0,1,1.434-1,.641.641,0,0,0,.542-.2,3.239,3.239,0,0,1,3.567-.647l.016.006.266,1.477a3.291,3.291,0,0,0,.275.84C8.3,91.189,7.27,91.241,6.2,91.228ZM33.04,90.082A2.457,2.457,0,0,1,30.742,92H12.2a2.457,2.457,0,0,1-2.3-1.921L7.011,74.021a1.478,1.478,0,0,1,.2-1.1,5.157,5.157,0,0,0,6.8,1.3,5.729,5.729,0,0,0,9.572-1.071,5.685,5.685,0,0,0,2.117-.245,6.177,6.177,0,0,0,10.111,1.734Z" transform="translate(0 -57.054)"/><path class="a" d="M133.372,19.287a2.789,2.789,0,1,0-2.789-2.789A2.792,2.792,0,0,0,133.372,19.287Zm0-4.3a1.508,1.508,0,1,1-1.508,1.508A1.509,1.509,0,0,1,133.372,14.991Z" transform="translate(-119.325 -12.676)"/><path class="a" d="M19.975,14.479a1.885,1.885,0,1,0-1.885-1.885A1.887,1.887,0,0,0,19.975,14.479Zm0-2.488a.6.6,0,1,1-.6.6A.6.6,0,0,1,19.975,11.992Z" transform="translate(-15.312 -9.903)"/><path class="a" d="M381.966,5.384a2.692,2.692,0,1,0-2.692-2.692A2.695,2.695,0,0,0,381.966,5.384Zm0-4.1a1.41,1.41,0,1,1-1.41,1.41A1.412,1.412,0,0,1,381.966,1.282Z" transform="translate(-349.268)"/><path class="a" d="M20.087,301.191a2,2,0,1,0-2-2A2,2,0,0,0,20.087,301.191Zm0-2.714a.716.716,0,1,1-.716.716A.717.717,0,0,1,20.087,298.478Z" transform="translate(-15.312 -274.791)"/></g></svg>