<svg xmlns="http://www.w3.org/2000/svg" width="54" height="54" viewBox="0 0 54 54"><defs><style>.a{fill:none;}.b{fill:#ff824c;}</style></defs><g transform="translate(-6.143 -8.143)"><g transform="translate(20.143 18.143)"><path class="a" d="M0,0H24V23.671H0Z"/><ellipse class="b" cx="2.5" cy="2.466" rx="2.5" ry="2.466" transform="translate(2 6.904)"/><ellipse class="b" cx="2.5" cy="2.466" rx="2.5" ry="2.466" transform="translate(6.5 2.959)"/><ellipse class="b" cx="2.5" cy="2.466" rx="2.5" ry="2.466" transform="translate(12.5 2.959)"/><ellipse class="b" cx="2.5" cy="2.466" rx="2.5" ry="2.466" transform="translate(17 6.904)"/><path class="b" d="M17.34,14.8c-.87-1.006-1.6-1.864-2.48-2.87a4.237,4.237,0,0,0-1.75-1.3,2.047,2.047,0,0,0-.33-.089A5.1,5.1,0,0,0,12,10.5a4.252,4.252,0,0,0-.79.049,2.047,2.047,0,0,0-.33.089,4.3,4.3,0,0,0-1.75,1.3c-.87,1.006-1.6,1.864-2.48,2.87C5.34,16.1,3.73,17.532,4.03,19.535a3.118,3.118,0,0,0,2.33,2.288c.73.148,3.06-.434,5.54-.434h.18c2.48,0,4.81.572,5.54.434a3.133,3.133,0,0,0,2.33-2.288c.31-2.012-1.3-3.442-2.61-4.734Z" transform="translate(0 -0.144)"/></g><path class="b" d="M4.25,0,8.5,10.082H0Z" transform="translate(36.393 53.143) rotate(180)"/></g><rect class="a" width="54" height="54"/></svg>