<svg xmlns="http://www.w3.org/2000/svg" width="36" height="36.001" viewBox="0 0 36 36.001"><defs><style>.a{fill:#fff;}</style></defs><g transform="translate(-0.004)"><path class="a" d="M35.556,7.51,28.494.449a1.534,1.534,0,0,0-2.169,0l-.873.873a1.534,1.534,0,0,0,0,2.169l3.081,3.081L27.211,7.894,24.13,4.813a1.534,1.534,0,0,0-2.169,0L9.452,17.323a1.534,1.534,0,0,0,0,2.169L10.84,20.88,9.516,22.2a1.533,1.533,0,0,0,0,2.169l.608.608L.19,34.915a.636.636,0,0,0,.9.9l9.934-9.934.608.608a1.534,1.534,0,0,0,2.169,0l1.324-1.324,1.388,1.388a1.533,1.533,0,0,0,2.169,0l.854-.854c.421-.037-1.8-.637-1.452-.347l-.3.3a.262.262,0,0,1-.37,0l-7.061-7.061a.262.262,0,0,1,0-.37l2.81-2.81.757.757a.636.636,0,1,0,.9-.9l-.757-.757,1.4-1.4.757.757a.636.636,0,0,0,.9-.9l-.757-.757,4.379-4.379,7.432,7.432-.783.783-.016.018c-.195-.079.952.845.952.845l2.867-2.867a1.535,1.535,0,0,0,0-2.169L28.111,8.793l1.322-1.322,3.081,3.081a1.534,1.534,0,0,0,2.169,0l.873-.873A1.536,1.536,0,0,0,35.556,7.51ZM12.9,25.589a.262.262,0,0,1-.37,0l-2.116-2.116a.262.262,0,0,1,0-.37l1.324-1.324,2.486,2.486ZM30.293,13.144l-1.221,1.221L21.64,6.933l1.221-1.221a.262.262,0,0,1,.37,0l7.061,7.061A.262.262,0,0,1,30.293,13.144ZM34.656,8.78l-.873.873a.262.262,0,0,1-.37,0L26.352,2.591a.262.262,0,0,1,0-.37l.873-.873a.262.262,0,0,1,.37,0L34.656,8.41A.262.262,0,0,1,34.656,8.78Z" transform="translate(0 0)"/><path class="a" d="M202.192,348.947a4.94,4.94,0,0,0-5.11,4.736,1.7,1.7,0,0,0,1.86,1.883,8.449,8.449,0,0,0,1.8-.287,7.429,7.429,0,0,1,1.446-.245,7.143,7.143,0,0,1,1.347.235,8.632,8.632,0,0,0,1.866.3,1.721,1.721,0,0,0,1.9-1.883A4.94,4.94,0,0,0,202.192,348.947Zm3.213,5.272a7.76,7.76,0,0,1-1.56-.262,7.768,7.768,0,0,0-1.654-.27,8.253,8.253,0,0,0-1.751.28,7.6,7.6,0,0,1-1.5.252c-.407,0-.51-.053-.51-.535a3.781,3.781,0,0,1,7.521,0C205.953,354.133,205.866,354.219,205.406,354.219Z" transform="translate(-179.238 -328.963)"/><path class="a" d="M176.887,297.245a2.158,2.158,0,1,0-2.128,2.52A2.351,2.351,0,0,0,176.887,297.245Zm-2.906,0c0-.625.364-1.173.778-1.173s.778.548.778,1.173-.364,1.173-.778,1.173S173.981,297.869,173.981,297.245Z" transform="translate(-156.728 -279.038)"/><path class="a" d="M238.7,278.784a2.556,2.556,0,1,0-2.128-2.52A2.352,2.352,0,0,0,238.7,278.784Zm0-3.692c.415,0,.778.548.778,1.173s-.364,1.173-.778,1.173-.778-.548-.778-1.173S238.287,275.092,238.7,275.092Z" transform="translate(-215.594 -259.72)"/><path class="a" d="M302.641,294.725a2.556,2.556,0,1,0,2.128,2.52A2.351,2.351,0,0,0,302.641,294.725Zm0,3.692c-.414,0-.778-.548-.778-1.173s.364-1.173.778-1.173.778.548.778,1.173S303.056,298.417,302.641,298.417Z" transform="translate(-274.457 -279.038)"/></g></svg>